<?xml version="1.0" encoding="UTF-8" standalone="no"?>
<!-- Created with Inkscape (http://www.inkscape.org/) -->

<svg
   width="210mm"
   height="297mm"
   viewBox="0 0 210 297"
   version="1.1"
   id="svg5"
   inkscape:version="1.1 (c68e22c387, 2021-05-23)"
   sodipodi:docname="logo.svg"
   xmlns:inkscape="http://www.inkscape.org/namespaces/inkscape"
   xmlns:sodipodi="http://sodipodi.sourceforge.net/DTD/sodipodi-0.dtd"
   xmlns="http://www.w3.org/2000/svg"
   xmlns:svg="http://www.w3.org/2000/svg">
  <sodipodi:namedview
     id="namedview7"
     pagecolor="#ffffff"
     bordercolor="#666666"
     borderopacity="1.0"
     inkscape:pageshadow="2"
     inkscape:pageopacity="0.0"
     inkscape:pagecheckerboard="0"
     inkscape:document-units="mm"
     showgrid="false"
     inkscape:zoom="2.8579851"
     inkscape:rotation="-1"
     inkscape:cx="389.82513"
     inkscape:cy="561.83059"
     inkscape:window-width="1920"
     inkscape:window-height="991"
     inkscape:window-x="2391"
     inkscape:window-y="-9"
     inkscape:window-maximized="1"
     inkscape:current-layer="g6491" />
  <defs
     id="defs2">
    <filter
       inkscape:label="Oil Slick"
       inkscape:menu="Overlays"
       inkscape:menu-tooltip="Rainbow-colored semitransparent oily splotches"
       style="color-interpolation-filters:sRGB;"
       id="filter6505"
       x="-0.00032608618"
       y="-0.00062629976"
       width="1.0006522"
       height="1.0012527">
      <feTurbulence
         baseFrequency="0.15934065934065933"
         numOctaves="3"
         type="fractalNoise"
         id="feTurbulence6493"
         seed="330" />
      <feColorMatrix
         values="1 0 0 0 0 0 1 0 0 0 0 0 1 0 0 0 0 0 5 -3"
         id="feColorMatrix6495" />
      <feMorphology
         result="result3"
         radius="2.7"
         operator="dilate"
         id="feMorphology6497" />
      <feTurbulence
         baseFrequency="0.121"
         numOctaves="2"
         result="result91"
         id="feTurbulence6499" />
      <feDisplacementMap
         result="result4"
         scale="18.5"
         yChannelSelector="A"
         xChannelSelector="R"
         in="result3"
         in2="result91"
         id="feDisplacementMap6501" />
      <feComposite
         in2="SourceGraphic"
         operator="atop"
         in="result4"
         id="feComposite6503"
         result="result92" />
    </filter>
    <filter
       style="color-interpolation-filters:sRGB"
       id="filter8727"
       inkscape:label="filter1"
       x="0"
       y="0"
       width="1"
       height="1" />
    <filter
       inkscape:label="Age"
       inkscape:menu="Image Effects"
       inkscape:menu-tooltip="Imitate aged photograph"
       height="1.0012526"
       y="-0.00062629977"
       width="1.0006522"
       x="-0.00032608618"
       style="color-interpolation-filters:sRGB;"
       id="filter9554"
       inkscape:auto-region="false">
      <feTurbulence
         baseFrequency="0.028999999999999942"
         numOctaves="4"
         type="fractalNoise"
         result="result91"
         id="feTurbulence9548"
         seed="204" />
      <feDisplacementMap
         scale="25"
         result="result5"
         xChannelSelector="R"
         in="SourceGraphic"
         in2="result91"
         id="feDisplacementMap9550" />
      <feComposite
         in="SourceGraphic"
         operator="atop"
         in2="result5"
         id="feComposite9552"
         result="fbSourceGraphic" />
      <feColorMatrix
         result="fbSourceGraphicAlpha"
         in="fbSourceGraphic"
         values="0 0 0 -1 0 0 0 0 -1 0 0 0 0 -1 0 0 0 0 1 0"
         id="feColorMatrix9574" />
      <feColorMatrix
         id="feColorMatrix9576"
         type="saturate"
         in="fbSourceGraphic"
         values="0" />
      <feColorMatrix
         id="feColorMatrix9578"
         values="3 0 0 0 -0.3 0 3 0 0 -0.3 0 0 3 0 -0.3 0 0 0 1 0"
         result="result0" />
      <feTurbulence
         id="feTurbulence9580"
         baseFrequency="0.111"
         numOctaves="2"
         type="fractalNoise" />
      <feColorMatrix
         id="feColorMatrix9582"
         values="0 0 0 0 0 0 0 0 0 0 0 0 0 0 0 0 0 0 255 -200" />
      <feGaussianBlur
         id="feGaussianBlur9584"
         stdDeviation="0.01"
         result="result92" />
      <feComposite
         in2="result0"
         id="feComposite9586"
         operator="atop" />
    </filter>
  </defs>
  <g
     inkscape:label="Layer 1"
     inkscape:groupmode="layer"
     id="layer1"
     style="display:inline">
    <g
       id="g6491"
       style="opacity:1;filter:url(#filter6505)">
      <g
         id="g9546"
         style="filter:url(#filter9554)"
         inkscape:export-filename="C:\Users\shaba\Documents\code\internet\blog\src\logo.png"
         inkscape:export-xdpi="105.53418"
         inkscape:export-ydpi="105.53418">
        <path
           style="fill:#000000;stroke-width:0.165;stroke-linecap:round;stroke-linejoin:round"
           id="path857"
           d="m 65.510985,155.73328 c 0.05647,0.0609 0.103687,0.13201 0.169412,0.18285 0.673147,0.52062 1.484801,0.51005 2.304365,0.46658 1.348508,-0.0715 2.105271,-0.26324 3.452934,-0.51577 1.608398,-0.42628 2.211123,-0.52037 3.747532,-1.19368 1.808221,-0.79243 4.674614,-2.61917 5.906045,-3.47415 0.907301,-0.62994 1.966352,-1.88171 2.701362,-2.68769 2.166479,-2.67444 3.83867,-5.69656 5.453374,-8.72298 0.454618,-0.88603 0.89045,-1.78125 1.328473,-2.67547 0.042,-0.0857 0.379828,-0.7725 0.471033,-0.91318 0.04213,-0.065 0.102663,-0.11597 0.153995,-0.17396 -1.116613,0.64696 -2.233226,1.29393 -3.349837,1.9409 -0.02032,10e-4 -0.06226,-0.0169 -0.06097,0.003 0.01032,0.16166 0.05025,0.32064 0.09161,0.47726 0.267867,1.01449 0.382802,1.20464 0.925658,2.27244 0.29454,0.57935 0.614265,1.14556 0.921399,1.71834 0.976696,1.44557 1.683689,2.57142 2.814351,3.91497 0.558568,0.66375 1.163408,1.28754 1.765785,1.9118 0.578358,0.59936 1.160227,1.19678 1.775542,1.75813 1.322646,1.20667 2.118894,1.74576 3.527067,2.79003 1.397525,0.89949 2.891895,1.65028 4.523085,2.01516 0.72808,0.16286 1.47206,0.21587 2.21551,0.21297 0.25863,-0.001 0.51653,-0.0276 0.7748,-0.0413 0,0 2.87129,-2.13374 2.87129,-2.13374 v 0 c -0.74187,0.11744 -1.129,0.20605 -1.91167,0.20035 -2.1774,-0.0159 -4.15144,-0.75075 -6.02992,-1.81127 -0.59927,-0.38885 -1.21884,-0.74808 -1.7978,-1.16655 -1.323102,-0.95635 -2.541402,-2.02502 -3.672528,-3.20211 -1.132244,-1.17826 -2.243211,-2.52094 -3.125028,-3.9017 -0.414969,-0.64977 -0.749786,-1.34736 -1.12468,-2.02105 -0.579408,-1.44886 -0.826304,-1.81981 -1.07964,-3.28372 -0.347123,-2.00582 0.08774,-0.11544 -0.03452,-1.50805 -0.0145,-0.16507 0.03631,-0.5448 -0.117454,-0.48303 -1.224878,0.49202 -2.308516,1.28077 -3.462774,1.92116 -0.09124,0.3431 -0.222443,0.67739 -0.346609,1.00945 -0.319003,0.85312 -0.668938,1.69401 -1.045221,2.52353 -0.191333,0.39826 -0.375793,0.7999 -0.574003,1.19478 -0.750464,1.49511 -1.57563,2.95416 -2.486223,4.35791 -0.330142,0.50894 -0.664755,1.01561 -1.022826,1.50529 -0.369488,0.5053 -0.772396,0.98529 -1.158592,1.47794 -0.42671,0.45673 -0.83108,0.93541 -1.280128,1.37019 -0.452885,0.43851 -1.127954,0.68898 -1.422303,1.24643 -0.16129,0.30545 1.247424,-0.57719 0.96438,-0.3792 -0.536853,0.37553 -1.140862,0.648 -1.737037,0.91968 -1.521344,0.69329 -2.046224,0.76131 -3.64122,1.18315 -1.322518,0.22063 -1.831475,0.36807 -3.128672,0.36674 -0.544956,-5.3e-4 -1.307988,-0.0287 -1.739033,-0.45879 -0.04356,-0.0435 -0.0628,-0.10584 -0.0942,-0.15876 0,0 -3.416116,1.96478 -3.416116,1.96478 z" />
        <path
           style="fill:#000000;stroke-width:0.165;stroke-linecap:round;stroke-linejoin:round"
           id="path859"
           d="m 70.102019,161.42343 c 0.662702,0.25522 1.388493,0.30213 2.09059,0.34628 0.285159,0.0179 0.570575,0.0401 0.856293,0.0386 0.331309,-0.002 0.661856,-0.0319 0.992784,-0.0479 0.391904,-0.0647 0.787399,-0.11041 1.175712,-0.19397 0.887455,-0.19098 1.806872,-0.48085 2.663891,-0.77549 0.781767,-0.26876 1.664997,-0.6067 2.425669,-0.93793 0.343741,-0.14969 0.679942,-0.31612 1.019913,-0.47418 0.295693,-0.16079 0.597162,-0.31137 0.887074,-0.48236 1.260268,-0.74327 2.525717,-1.47882 3.762824,-2.26004 0.254418,-0.16067 0.475507,-0.36908 0.70629,-0.56216 0.626925,-0.52451 1.188746,-1.10145 1.747435,-1.69608 0.387961,-0.45498 0.787379,-0.90238 1.154792,-1.37458 0.212241,-0.27278 0.405911,-0.56125 0.605484,-0.84334 -0.307957,-0.0589 0.34391,-0.22965 0.253134,-0.1799 -1.141878,0.62588 -2.302314,1.21745 -3.445459,1.84102 -0.0099,0.005 0.01093,0.0197 0.0158,0.0298 0.03536,0.0741 0.06652,0.15019 0.10482,0.22277 0.06023,0.11412 0.127056,0.22464 0.190585,0.33696 0.540075,0.88761 1.282605,1.60981 2.09155,2.25254 0.321156,0.25517 0.647591,0.5046 0.987091,0.7348 0.372515,0.25259 0.764707,0.47487 1.147062,0.71231 1.97504,1.13719 4.127394,1.92684 6.335739,2.47238 0.404164,0.0998 0.81276,0.18078 1.219139,0.27118 1.231909,0.24309 2.473559,0.43211 3.715139,0.61765 0,0 2.95958,-2.10605 2.95958,-2.10605 v 0 c -1.3149,-0.0699 -2.62841,-0.18006 -3.92433,-0.42459 -0.4112,-0.0804 -0.8247,-0.14995 -1.23362,-0.24131 -2.194473,-0.4903 -4.340336,-1.23786 -6.283603,-2.38072 -0.359132,-0.23993 -0.730319,-0.46273 -1.077394,-0.71979 -1.087922,-0.80576 -2.047647,-1.82731 -2.62187,-3.06279 -0.04045,-0.11181 -0.08542,-0.22209 -0.121354,-0.33543 -0.0021,-0.007 -0.129101,-0.53885 -0.167404,-0.52308 -5.310958,2.18686 -2.836357,0.60371 -3.68459,2.03025 -0.458439,0.72883 -0.975424,1.41868 -1.550459,2.06038 -0.543494,0.57184 -1.09221,1.12257 -1.705493,1.62131 -0.223631,0.18187 -0.94854,0.64453 -0.684988,0.5278 0.69464,-0.30766 3.689083,-2.06918 1.277011,-0.66008 -0.352528,0.1752 -0.700323,0.36026 -1.057582,0.52559 -0.782854,0.3623 -1.642083,0.70563 -2.453613,0.99436 -0.893921,0.31804 -1.607013,0.54896 -2.533036,0.7414 -0.355439,0.0739 -0.717235,0.11288 -1.075852,0.16933 -0.306675,0.0128 -0.613095,0.0406 -0.92003,0.0383 -0.269653,-0.002 -0.53889,-0.026 -0.807358,-0.0513 -0.57901,-0.0547 -1.170605,-0.14184 -1.703611,-0.38662 0,0 -3.333742,2.13456 -3.333742,2.13456 z" />
        <path
           style="fill:#000000;stroke-width:0.165;stroke-linecap:round;stroke-linejoin:round"
           id="path861"
           d="m 72.491794,168.77284 c 0.895549,-0.0654 1.794259,-0.0764 2.691839,-0.0821 1.305079,-0.0172 2.609581,-0.0558 3.911628,-0.14742 1.109728,-0.059 2.196861,-0.2761 3.274668,-0.53368 0.79982,-0.19883 1.569818,-0.49271 2.326947,-0.81432 1.804551,-0.85325 3.531015,-1.87459 5.22401,-2.92763 0.344517,-0.23308 0.677825,-0.49659 0.927343,-0.83206 0.869585,-0.93803 3.910883,-2.26824 -3.159765,1.73718 -0.01278,0.007 0.01744,-0.0398 0.03001,-0.0323 0.05013,0.0302 0.0842,0.0815 0.123518,0.12484 0.06843,0.0755 0.133025,0.15435 0.199536,0.23153 0.588661,0.66746 1.239335,1.30319 1.982451,1.79884 0.173734,0.11588 0.356788,0.21714 0.535181,0.32571 0.739717,0.38496 1.521706,0.70686 2.328161,0.92457 0.522881,0.14115 0.723234,0.15922 1.264923,0.24778 1.743866,0.22667 3.506393,0.19158 5.260877,0.20515 0.815819,0.002 1.631209,0.0273 2.446439,0.0555 0,0 2.94257,-2.1377 2.94257,-2.1377 v 0 c -0.85753,0.0264 -1.71527,0.0502 -2.57335,0.0407 -1.69512,-0.0198 -3.396501,-0.0496 -5.07991,-0.26685 -0.431792,-0.0718 -0.793607,-0.1238 -1.218271,-0.22579 -0.788961,-0.18948 -1.556396,-0.48011 -2.279812,-0.84558 -0.171527,-0.0993 -0.34844,-0.18986 -0.514577,-0.29795 -0.709385,-0.46156 -1.311765,-1.08199 -1.787925,-1.77834 -0.02246,-0.0375 -0.406519,-0.69614 -0.444595,-0.67856 -3.571706,1.64859 -2.679433,0.9055 -3.662299,2.0946 -0.276389,0.2661 -0.582644,0.50095 -0.911871,0.69823 -1.234358,0.74523 -0.114241,0.0668 2.745574,-1.57508 0.109024,-0.0626 -0.215376,0.12978 -0.324533,0.19214 -0.253852,0.14502 -0.45879,0.25227 -0.719,0.38583 -0.119507,0.0614 -0.239797,0.12116 -0.359698,0.18173 -0.757404,0.33621 -1.523664,0.65351 -2.320745,0.88503 -1.084377,0.29808 -2.180156,0.56087 -3.306183,0.6376 -1.292104,0.11354 -2.586747,0.15224 -3.883652,0.1629 -0.822177,-0.005 -1.64636,-0.0111 -2.465972,-0.082 0,0 -3.203521,2.3275 -3.203521,2.3275 z" />
        <path
           style="fill:#000000;stroke-width:0.165;stroke-linecap:round;stroke-linejoin:round"
           id="path863"
           d="m 117.94921,136.78348 c 0.34721,1.38031 0.38667,2.82005 0.44974,4.23522 0.10947,2.4738 -0.0539,4.94604 -0.25565,7.41043 -0.13877,1.67203 -0.30343,3.34499 -0.62974,4.99256 -0.17755,0.89642 -0.31647,1.39727 -0.5395,2.2776 -0.36004,1.32335 -0.70952,2.65166 -1.14756,3.95207 -0.23065,0.68474 -0.33632,0.93624 -0.59171,1.59428 -0.41212,1.0096 -0.89854,1.98655 -1.27043,3.01202 -0.30514,0.87466 -0.60774,1.75217 -0.85331,2.64577 -0.14483,0.47256 0.008,0.6912 0.19176,1.09025 0.0257,0.23277 -0.0338,0.47113 -0.063,0.70312 -0.026,0.17022 -0.005,0.34489 -0.0235,0.51526 -0.008,0.0785 -0.0286,0.15541 -0.0398,0.2336 0.0203,0.0671 0.0335,0.13686 0.061,0.2014 0.0562,0.13201 0.15741,0.2732 0.23484,0.39309 0.10823,0.16757 0.21428,0.33648 0.31902,0.50624 0.16777,0.27924 0.23066,0.6166 0.4273,0.879 0.0525,0.0701 0.11544,0.13181 0.17317,0.19771 0.21572,0.22155 0.45641,0.41335 0.71188,0.5862 0,0 3.27535,-2.12651 3.27535,-2.12651 v 0 c -0.24755,-0.11817 -0.47744,-0.26238 -0.66343,-0.46815 -0.0413,-0.0463 -0.0882,-0.0884 -0.12407,-0.13906 -0.0563,-0.0795 -0.12035,-0.23816 -0.16175,-0.32397 -0.0905,-0.18751 -0.17769,-0.37614 -0.26957,-0.56304 -0.11154,-0.1814 -0.099,-0.16321 -0.21399,-0.34138 -0.0847,-0.13128 -0.21733,-0.28533 -0.24775,-0.4443 -0.006,-0.0313 0.004,-0.0637 0.006,-0.0955 0.0322,-0.25186 0.0264,-0.50698 0.0628,-0.75871 0.0291,-0.2979 0.069,-0.6034 -0.0383,-0.89132 -0.15924,-0.34604 -0.2663,-0.37019 -0.16535,-0.80777 0.19617,-0.87603 0.45344,-1.73774 0.79464,-2.56902 0.17787,-0.44891 0.3773,-0.88881 0.55322,-1.33836 0.10442,-0.26684 0.26297,-0.72505 0.355,-0.98592 0.0741,-0.21001 0.14828,-0.42 0.22242,-0.62999 0.59499,-1.81148 1.12991,-3.64232 1.55654,-5.50145 0.21419,-0.93422 0.3157,-1.32601 0.48566,-2.27798 0.2958,-1.65682 0.46642,-3.33399 0.5984,-5.01075 0.0906,-1.27799 0.20959,-2.55439 0.26685,-3.83451 0.0448,-1.00156 0.0469,-1.44569 0.0423,-2.44585 -0.002,-0.39589 -0.009,-0.79174 -0.0137,-1.1876 -0.002,-1.50535 0.01,-3.01062 0.0218,-4.51579 0,0 -3.49761,1.83115 -3.49761,1.83115 z" />
        <path
           style="fill:#000000;stroke-width:0.165;stroke-linecap:round;stroke-linejoin:round"
           id="path871"
           d="m 116.5463,141.77686 c 1.32338,-0.11019 2.65272,-0.12012 3.97981,-0.13466 1.52758,-0.024 3.06406,-0.0196 4.56781,0.27669 0.58151,0.1394 1.02483,0.36123 1.39082,0.83823 0.31682,0.43065 0.49971,0.91966 0.6546,1.42559 0.10574,0.42884 0.21203,0.87102 0.20653,1.31628 -0.001,0.11257 -0.0159,0.2246 -0.0238,0.3369 -0.14308,1.04796 -0.64457,1.98472 -1.17656,2.88113 -0.51138,0.82871 -1.18549,1.42552 -1.97795,1.97205 -0.12498,0.0775 -0.24806,0.15817 -0.37495,0.23253 -0.12091,0.0709 -0.48889,0.27419 -0.36819,0.20298 0.95385,-0.56275 1.92423,-1.09777 2.86775,-1.67766 0.13645,-0.0839 -0.29224,0.13175 -0.44252,0.1871 -0.42572,0.15678 -0.57345,0.17688 -1.01585,0.28043 -0.76085,0.15437 -1.53638,0.19932 -2.31069,0.20968 -0.43282,0.005 -0.86572,0.002 -1.29849,-0.006 -0.24009,-0.003 -0.12284,-0.001 -0.35176,-0.006 0,0 -3.16557,2.29757 -3.16557,2.29757 v 0 c 0.23626,-0.002 0.11583,-0.002 0.36129,-0.002 0.44638,-0.002 0.89284,0.004 1.33915,-0.007 0.82331,-0.0358 1.6455,-0.10553 2.45952,-0.2371 0.3894,-0.0714 0.64554,-0.10876 1.02554,-0.21531 0.14891,-0.0417 0.30456,-0.0715 0.44079,-0.14469 1.44741,-0.77727 2.96301,-1.55852 4.33433,-2.50262 0.30214,-0.23454 0.43337,-0.32489 0.71451,-0.59116 0.4626,-0.43815 0.84469,-0.95074 1.1541,-1.50684 0.52194,-0.96887 1.02923,-1.97786 1.19504,-3.07732 0.018,-0.30096 0.0354,-0.42759 0.0166,-0.72396 -0.0232,-0.36535 -0.13147,-0.71696 -0.24078,-1.06376 -0.0194,-0.0636 -0.16643,-0.54702 -0.18777,-0.60617 -0.12372,-0.3429 -0.31725,-0.65238 -0.50468,-0.96286 -0.45054,-0.55808 -0.94202,-0.86066 -1.65278,-1.00461 -1.59116,-0.21549 -3.20159,-0.15794 -4.80319,-0.18103 -1.20329,-0.0136 -2.41062,-0.0146 -3.60911,-0.13466 0,0 -3.20352,2.32749 -3.20352,2.32749 z" />
        <path
           style="fill:#000000;stroke-width:0.165;stroke-linecap:round;stroke-linejoin:round"
           id="path873"
           d="m 114.12301,155.00406 c 0.65456,0.0325 1.30999,0.037 1.96521,0.0378 0.89652,-0.016 1.79284,0.012 2.68921,0.0219 0.72009,-0.0249 1.43569,0.0262 2.14839,0.12297 0.73675,0.0874 1.44533,0.299 2.14327,0.5419 0.7432,0.26073 1.44993,0.60752 2.15019,0.96476 0.55334,0.31045 1.08892,0.68795 1.47159,1.20288 0.0611,0.0822 0.1118,0.17155 0.1677,0.25733 0.38602,0.56512 0.46182,1.23001 0.52332,1.89345 0.0752,0.96763 0.0549,1.94181 -0.0485,2.90637 -0.0523,0.56813 -0.21532,1.12036 -0.49065,1.61926 -0.26815,0.39335 -0.5809,0.78719 -0.98448,1.05139 -0.0859,0.0562 -0.17842,0.10141 -0.26763,0.15211 5.39026,-3.14226 3.46988,-1.90313 2.21837,-1.38623 -0.42689,0.17631 -0.86317,0.322 -1.3029,0.46204 -0.96476,0.28734 -1.96408,0.39807 -2.9654,0.44986 -1.08928,0.0208 -2.1792,-0.007 -3.26804,-0.0393 -0.85969,-0.0428 -1.71676,-0.12395 -2.57478,-0.19049 -0.57941,-0.0541 -1.16073,-0.0831 -1.74069,-0.12953 -0.28412,-0.0344 -0.56685,-0.0768 -0.85203,-0.10188 -0.0371,-0.003 -0.0742,-0.005 -0.11125,-0.008 0,0 -3.19841,2.30488 -3.19841,2.30488 v 0 c 0.0369,2.6e-4 0.0738,5.3e-4 0.11071,8e-4 0.29814,0.006 0.59502,0.0298 0.89158,0.0609 0.59727,0.0484 1.19949,0.0263 1.7962,0.0921 0.88264,0.0653 1.76929,0.0731 2.65115,0.15507 1.10057,0.0416 2.20256,0.0299 3.30373,0.0431 1.0046,-0.01 2.00846,-0.0829 2.98356,-0.34261 2.14859,-0.59803 3.58596,-1.4354 5.62842,-2.76679 0.0892,-0.0676 0.18223,-0.13054 0.26767,-0.2029 0.38562,-0.32657 0.68023,-0.75825 0.92324,-1.1959 0.23941,-0.54952 0.38204,-1.12341 0.37044,-1.72752 0.0201,-0.981 0.0353,-1.96274 0.007,-2.94371 -0.0157,-0.2775 -0.0257,-0.58963 -0.0701,-0.86586 -0.0714,-0.44404 -0.2458,-0.86063 -0.49796,-1.23162 -0.18164,-0.25373 -0.22816,-0.3351 -0.4457,-0.56898 -0.3825,-0.41121 -0.84951,-0.72167 -1.32719,-1.01097 -0.12033,-0.076 -0.23722,-0.15771 -0.36099,-0.22796 -0.57391,-0.32569 -1.21161,-0.528 -1.81404,-0.79082 -0.69518,-0.28554 -1.41607,-0.49868 -2.15477,-0.64021 -0.73043,-0.0964 -1.46397,-0.15851 -2.20178,-0.14696 -0.90334,0.009 -1.80703,0.0344 -2.71018,-1.2e-4 -0.5962,-0.0172 -1.19588,-0.0234 -1.7876,-0.10433 0,0 -3.23589,2.28157 -3.23589,2.28157 z" />
        <path
           style="fill:#000000;stroke-width:0.165;stroke-linecap:round;stroke-linejoin:round"
           id="path875"
           d="m 109.97305,171.77312 c 1.143,-0.0508 2.28394,-0.13364 3.42502,-0.21721 2.40994,-0.19381 4.82576,-0.29935 7.24048,-0.41241 1.66463,-0.0807 3.33626,-0.15342 4.98656,-0.40158 0.31929,-0.048 0.63655,-0.10866 0.95483,-0.16299 1.51526,-0.29491 3.04132,-0.62979 4.45702,-1.26418 0.25701,-0.11517 0.50448,-0.25058 0.75672,-0.37587 1.60748,-0.96748 3.55995,-1.75658 4.86942,-3.20703 0.48758,-0.54008 0.85047,-1.14863 1.21046,-1.77598 0.70967,-1.3866 0.95322,-2.92366 1.13831,-4.45192 0.0815,-0.85919 0.1325,-1.72682 0.0742,-2.58961 -0.0191,-0.28255 -0.0734,-0.66238 -0.11109,-0.94772 -0.073,-0.37498 -0.12658,-0.76619 -0.27453,-1.12206 -0.0731,-0.17593 -0.10448,-0.20779 -0.20825,-0.36637 -0.25573,-0.44011 -0.53483,-0.61265 -0.96869,-0.86588 -0.4955,-0.29651 -1.00784,-0.55968 -1.52875,-0.80794 -0.47424,-0.24182 -0.97702,-0.41676 -1.47555,-0.60002 -0.49987,-0.16778 -0.95603,-0.43436 -1.43747,-0.6442 -0.46217,-0.18287 -0.91804,-0.37864 -1.35947,-0.6073 -0.0512,-0.0258 -0.10238,-0.0517 -0.15358,-0.0775 0,0 -3.25576,2.16709 -3.25576,2.16709 v 0 c 0.0536,0.0198 0.10728,0.0395 0.16092,0.0593 0.46303,0.19669 0.92088,0.40449 1.37914,0.61187 0.49523,0.20403 0.98012,0.4318 1.47473,0.63742 0.48296,0.18861 0.96582,0.3775 1.44313,0.58021 0.5095,0.25129 1.04231,0.45985 1.52109,0.76985 0.18607,0.11763 0.38989,0.23133 0.5471,0.38889 0.10935,0.10959 0.18289,0.25054 0.28674,0.36476 0.26865,0.37689 0.40163,0.83792 0.51158,1.28189 0.0681,0.34002 0.113,0.52785 0.15127,0.88041 0.0899,0.8282 0.0544,1.66565 -0.0222,2.49306 -0.17007,1.49665 -0.44075,2.99463 -1.20804,4.31565 -0.37744,0.60539 -0.74537,1.17344 -1.24776,1.6868 -0.16458,0.16817 -0.33792,0.32825 -0.51901,0.4785 -0.92693,0.76907 -2.24684,1.36813 1.77947,-0.88078 -0.24851,0.13469 -0.4915,0.28012 -0.74554,0.40406 -1.40127,0.68366 -2.92361,1.06059 -4.44628,1.35726 -1.98974,0.34249 -3.99635,0.57826 -6.0143,0.67108 -2.39525,0.11692 -4.78972,0.24687 -7.18458,0.37049 -0.33687,0.008 -0.67363,0.0239 -1.0106,0.0248 -0.66532,0.002 -1.32977,-0.0517 -1.99328,-0.0923 0,0 -3.20352,2.32749 -3.20352,2.32749 z" />
        <path
           style="fill:#000000;fill-opacity:1;stroke-width:0.165;stroke-linecap:round;stroke-linejoin:round"
           id="path877"
           d="m 128.46482,153.32951 c 1.4795,-0.77415 3.28975,-1.60282 4.57375,-2.82529 0.12655,-0.12048 0.24469,-0.24948 0.36703,-0.37422 0.93388,-0.96945 1.69689,-2.07702 2.43191,-3.19923 0.41833,-0.6911 0.78511,-1.41288 1.02287,-2.18706 0.13684,-0.44561 0.15274,-0.58589 0.24224,-1.03844 0.13362,-0.95505 0.15357,-1.92098 0.18764,-2.88338 0.0233,-0.64736 -0.0723,-1.28181 -0.21676,-1.91013 -0.17819,-0.60295 -0.50975,-1.1468 -0.84087,-1.67655 -0.30638,-0.49147 -0.63473,-0.96547 -1.0156,-1.40189 -0.26803,-0.33564 -0.62547,-0.55596 -0.99722,-0.75764 -0.50049,-0.23837 -1.02011,-0.43393 -1.54673,-0.60584 -0.38197,-0.12168 -0.76233,-0.24535 -1.16083,-0.29689 -0.53465,-0.0164 -1.06676,-0.0665 -1.59931,-0.11419 -0.61767,-0.0269 -1.23136,-0.10484 -1.84772,-0.14795 -0.52836,-0.0289 -1.0579,-0.0348 -1.58472,0.0179 -0.38818,0.0508 -0.77798,0.0869 -1.16864,0.11154 -0.58116,0.0273 -1.16306,0.028 -1.74471,0.0237 -0.59204,-0.0122 -1.18418,0.003 -1.77627,0.006 -0.61881,-0.004 -1.23748,-7.9e-4 -1.85624,-0.0107 -0.44362,-0.005 -0.88715,-0.0161 -1.3307,-0.004 -0.37637,0.0199 -0.75318,0.0367 -1.1277,0.0802 -0.46232,0.0653 -0.9234,0.1407 -1.38366,0.21945 -0.25096,0.043 -0.50333,0.0763 -0.7563,0.1047 0,0 -3.14423,2.3377 -3.14423,2.3377 v 0 c 0.27242,-0.0297 0.54354,-0.0688 0.81317,-0.11806 0.44587,-0.0769 0.89313,-0.13652 1.33925,-0.21125 0.3757,-0.0459 0.75149,-0.0852 1.12914,-0.11475 0.44525,-0.0323 0.89279,-0.0117 1.33892,-0.0259 0.62832,-0.01 1.25653,-0.007 1.88489,-0.0103 0.58536,0.004 1.17071,0.0198 1.75605,0.008 0.57432,-0.004 1.14859,-7.9e-4 1.72287,0.006 0.39901,0.003 0.79653,-0.0146 1.19102,-0.0807 0.51761,-0.0801 1.03592,-0.13774 1.5608,-0.0884 0.61979,0.0268 1.2378,0.0706 1.85556,0.12707 0.51543,0.0456 1.02786,0.12383 1.54476,0.14982 0.39295,0.0229 0.77944,0.0887 1.1552,0.20953 0.51048,0.13591 1.00215,0.32119 1.48085,0.54469 0.32956,0.19381 0.67423,0.37066 0.93851,0.65369 0.39355,0.39512 0.72895,0.83983 1.01285,1.32036 0.31547,0.49178 0.60819,1.00326 0.76863,1.56923 0.14004,0.59274 0.20591,1.19702 0.21961,1.80604 0.0177,0.93219 0.007,1.86992 -0.1632,2.78981 -0.0914,0.42886 -0.10798,0.56143 -0.24569,0.98251 -0.24063,0.73573 -0.59702,1.42535 -1.00356,2.08204 -0.73915,1.12716 -1.53186,2.22353 -2.52511,3.14451 -0.35641,0.31145 -0.71018,0.61408 -1.10333,0.8788 -0.0931,0.0627 -0.38255,0.2352 -0.28476,0.17999 3.3143,-1.87114 4.21615,-2.25714 2.99025,-1.72468 0,0 -3.10391,2.45307 -3.10391,2.45307 z" />
      </g>
    </g>
  </g>
</svg>
